<svg enable-background="new 0 0 100 100" viewBox="0 0 100 100" xmlns="http://www.w3.org/2000/svg"><g fill="#1d1d1b"><path d="m34.2803955 73.2192993c-.034668-16.2867432-.8716431-36.8203125-1.0545044-41.1202393 1.2255859-.8283691 2.0328979-2.2305908 2.0328979-3.8178101v-4.5415039c0-.8286133-.6713867-1.5-1.5-1.5h-16.234375c-.8286133 0-1.5.6713867-1.5 1.5v4.541504c0 1.5870361.8071289 2.9891968 2.0324097 3.8175659-.1828003 4.2993774-1.0193481 24.8334961-1.0540161 41.1204834-1.4108276.760437-2.3826904 2.2341919-2.3826904 3.946228v6.8969727c0 .8286133.6713867 1.5 1.5 1.5h19.0429688c.8286133 0 1.5-.6713867 1.5-1.5v-6.8969727c-.0000001-1.7120361-.9718629-3.185791-2.3826905-3.946228zm-4.0241089-40.3330688c.2236938 5.3532715.9732056 24.3568115 1.0230713 39.7792969h-11.2755127c.0498657-15.4214478.7989502-34.4258423 1.022583-39.7792969zm-11.2318725-7.6464844h13.234375v3.0415039c0 .8847656-.7202148 1.6049805-1.6054688 1.6049805h-10.0239258c-.8847656 0-1.6049805-.7202148-1.6049805-1.6049805v-3.0415039zm14.6386718 57.3227539h-16.0429687v-5.3969727c0-.6853027.4645996-1.2583618 1.0934448-1.4369507.0667725-.0095825.1312866-.0235596.1948853-.041626.0697632-.0100098.1391602-.0214233.2116699-.0214233h13.0429688c.0725098 0 .1419067.0114136.2116699.0214233.0635986.0180664.1281128.0320435.1948853.041626.6288452.1785889 1.0934448.7516479 1.0934448 1.4369507v5.3969727z"/><path d="m59.7803955 73.2192993c-.034668-16.2867432-.8716431-36.8203125-1.0545044-41.1202393 1.2255859-.8283691 2.0328979-2.2305908 2.0328979-3.8178101v-4.5415039c0-.8286133-.6713867-1.5-1.5-1.5h-16.234375c-.8286133 0-1.5.6713867-1.5 1.5v4.541504c0 1.5870361.8071289 2.9891968 2.0324097 3.8175659-.1828003 4.2993774-1.0193481 24.8334961-1.0540161 41.1204834-1.4108276.760437-2.3826904 2.2341919-2.3826904 3.946228v6.8969727c0 .8286133.6713867 1.5 1.5 1.5h19.0429688c.8286133 0 1.5-.6713867 1.5-1.5v-6.8969727c-.0000001-1.7120361-.9718629-3.185791-2.3826905-3.946228zm-4.0241089-40.3330688c.2236938 5.3532715.9732056 24.3568115 1.0230713 39.7792969h-11.2755127c.0498657-15.4214478.7989502-34.4258423 1.022583-39.7792969zm-11.2318725-7.6464844h13.234375v3.0415039c0 .8847656-.7202148 1.6049805-1.6054688 1.6049805h-10.0239258c-.8847656 0-1.6049805-.7202148-1.6049805-1.6049805v-3.0415039zm14.6386718 57.3227539h-16.0429687v-5.3969727c0-.6853027.4645996-1.2583618 1.0934448-1.4369507.0667725-.0095825.1312866-.0235596.1948853-.041626.0697632-.0100098.1391602-.0214233.2116699-.0214233h13.0429688c.0725098 0 .1419067.0114136.2116699.0214233.0635986.0180664.1281128.0320435.1948853.041626.6288452.1785889 1.0934448.7516479 1.0934448 1.4369507v5.3969727z"/><path d="m85.2803955 73.2192993c-.034668-16.2867432-.8716431-36.8203125-1.0545044-41.1202393 1.2255859-.8283691 2.0328979-2.2305908 2.0328979-3.8178101v-4.5415039c0-.8286133-.6713867-1.5-1.5-1.5h-16.234375c-.8286133 0-1.5.6713867-1.5 1.5v4.541504c0 1.5870361.8071289 2.9891968 2.0324097 3.8175659-.1828003 4.2993774-1.0193481 24.8334961-1.0540161 41.1204834-1.4108276.760437-2.3826904 2.2341919-2.3826904 3.946228v6.8969727c0 .8286133.6713867 1.5 1.5 1.5h19.0429688c.8286133 0 1.5-.6713867 1.5-1.5v-6.8969727c-.0000001-1.7120361-.9718629-3.185791-2.3826905-3.946228zm-4.0241089-40.3330688c.2236938 5.3532715.9732056 24.3568115 1.0230713 39.7792969h-11.2755127c.0498657-15.4214478.7989502-34.4258423 1.022583-39.7792969zm-11.2318725-7.6464844h13.234375v3.0415039c0 .8847656-.7202148 1.6049805-1.6054688 1.6049805h-10.0239258c-.8847656 0-1.6049805-.7202148-1.6049805-1.6049805v-3.0415039zm14.6386718 57.3227539h-16.0429687v-5.3969727c0-.6853027.4645996-1.2583618 1.0934448-1.4369507.0667725-.0095825.1312866-.0235596.1948853-.041626.0697632-.0100098.1391602-.0214233.2116699-.0214233h13.0429688c.0725098 0 .1419067.0114136.2116699.0214233.0635986.0180664.1281128.0320435.1948853.041626.6288452.1785889 1.0934448.7516479 1.0934448 1.4369507v5.3969727z"/></g></svg>