<svg enable-background="new 0 0 100 100" viewBox="0 0 100 100" xmlns="http://www.w3.org/2000/svg"><path d="m50 15.738c18.922 0 34.262 15.34 34.262 34.262s-15.34 34.262-34.262 34.262-34.262-15.34-34.262-34.262 15.34-34.262 34.262-34.262m0-5c-21.649 0-39.262 17.613-39.262 39.262s17.613 39.262 39.262 39.262 39.262-17.613 39.262-39.262-17.613-39.262-39.262-39.262z"/><path d="m35.064 63.806s14.519 15.354 29.873 0" fill="none" stroke="#000" stroke-linecap="round" stroke-miterlimit="10" stroke-width="6"/><path d="m42.126 44.831s-.095-.027-.272-.077c-.164-.06-.433-.127-.72-.254-.292-.131-.667-.258-1.037-.39-.358-.135-.761-.287-1.202-.452-.415-.18-.868-.308-1.295-.473-.226-.054-.432-.134-.648-.201-.221-.047-.423-.106-.629-.164-.21-.033-.406-.074-.598-.122-.195-.006-.382-.056-.562-.063-.361-.042-.699-.039-1.042-.04-.345.024-.699.027-1.086.097-.386.061-.802.124-1.234.242-.866.206-1.792.528-2.659.815-.86.3-1.666.574-2.266.768-.283.109-.551.171-.713.232-.176.054-.27.082-.27.082s-.013-.103-.009-.285c.01-.178.003-.458.062-.777.086-.661.313-1.57.821-2.56.515-.98 1.299-2.066 2.513-2.962.594-.455 1.31-.85 2.102-1.15.791-.305 1.691-.461 2.594-.499.909-.011 1.828.121 2.659.403.835.278 1.572.686 2.2 1.146.297.246.599.469.853.728.242.266.483.51.693.773.39.535.733 1.046.957 1.558.242.497.418.985.535 1.433.137.44.181.83.208 1.146.043.311.033.588.046.763-.001.185-.001.283-.001.283z"/><path d="m74.107 44.831s-.095-.027-.272-.077c-.164-.06-.433-.127-.72-.254-.292-.131-.667-.258-1.037-.39-.358-.135-.761-.287-1.202-.452-.415-.18-.868-.308-1.295-.473-.226-.054-.432-.134-.648-.201-.221-.047-.423-.106-.629-.164-.21-.033-.406-.074-.598-.122-.195-.006-.382-.056-.562-.063-.361-.042-.699-.039-1.042-.04-.345.024-.699.027-1.086.097-.386.061-.802.124-1.234.242-.866.206-1.792.528-2.659.815-.86.3-1.666.574-2.266.768-.283.109-.551.171-.713.232-.176.054-.27.082-.27.082s-.013-.103-.009-.285c.01-.178.003-.458.062-.777.086-.661.313-1.57.822-2.56.515-.98 1.299-2.066 2.513-2.962.594-.455 1.31-.85 2.102-1.15.791-.305 1.691-.461 2.594-.499.909-.011 1.828.121 2.659.403.835.278 1.572.686 2.2 1.146.297.246.599.469.853.728.242.266.483.51.693.773.39.535.733 1.046.957 1.558.242.497.418.985.535 1.433.137.44.181.83.207 1.146.043.311.033.588.046.763-.001.185-.001.283-.001.283z"/></svg>