<?xml version="1.0" encoding="UTF-8"?>
<svg width="122px" height="21px" viewBox="0 0 122 21" version="1.1" xmlns="http://www.w3.org/2000/svg" xmlns:xlink="http://www.w3.org/1999/xlink">
    <!-- Generator: Sketch 50.2 (55047) - http://www.bohemiancoding.com/sketch -->
    <title>Group</title>
    <desc>Created with Sketch.</desc>
    <defs></defs>
    <g id="Design-system" stroke="none" stroke-width="1" fill="none" fill-rule="evenodd">
        <g id="Current-colors-Copy" transform="translate(-55.000000, -252.000000)">
            <g id="Group" transform="translate(55.000000, 253.000000)">
                <path d="M59.1243752,18.9224939 C59.0072253,19.2025967 58.7284132,19.3855347 58.4187319,19.3855347 C58.1092793,19.3855347 57.8303147,19.2025967 57.7133172,18.9225684 L52.1091007,5.52476365 C51.9857007,5.22984413 52.068323,4.8907723 52.3140558,4.68162588 C52.4562058,4.56078407 52.6348651,4.49868792 52.8146678,4.49868792 C52.946147,4.49868792 53.0783122,4.53167185 53.1973676,4.59942665 L57.7133175,7.65721673 C57.7133175,7.65721673 58.1080758,17.5097933 58.4187321,17.5097933 C58.5784284,17.5097933 59.1243751,7.65721673 59.1243751,7.65721673 L65.2596049,-0.150153918 C65.5416946,-0.310159488 65.8967266,-0.277026645 66.1427643,-0.0679546856 C66.3888782,0.141266186 66.471348,0.480263561 66.3479481,0.775183088 L59.1243752,18.9224939 Z" id="Path" fill="#3CE04F"></path>
                <path d="M74.078897,19.9437922 C73.3702157,19.9437922 72.8176631,19.7517941 72.4212226,19.3677922 C72.0247821,18.9837903 71.8265648,18.3906534 71.8265648,17.5883636 L71.8265648,10.5940779 L70.3215017,10.5940779 C70.2443186,10.5940779 70.1811697,10.5735067 70.1320532,10.5323636 C70.0829366,10.4912206 70.0583787,10.4329354 70.0583787,10.3575065 L70.0583787,9.97693506 L71.8476146,9.85350649 L72.1002126,6.19179221 C72.1142459,6.13007761 72.1423121,6.07522102 72.184412,6.02722078 C72.2265118,5.97922054 72.2861524,5.95522078 72.3633355,5.95522078 L72.8369568,5.95522078 L72.8369568,9.86379221 L76.1417807,9.86379221 L76.1417807,10.5940779 L72.8369568,10.5940779 L72.8369568,17.5369351 C72.8369568,17.8180793 72.8737937,18.0597912 72.9474684,18.2620779 C73.0211432,18.4643646 73.1228831,18.6306487 73.252691,18.7609351 C73.382499,18.8912214 73.5351088,18.9872205 73.7105249,19.0489351 C73.8859411,19.1106497 74.0753877,19.1415065 74.2788704,19.1415065 C74.5314697,19.1415065 74.7489825,19.1055069 74.9314153,19.0335065 C75.1138481,18.9615061 75.2717203,18.8826498 75.4050365,18.7969351 C75.5383528,18.7112204 75.6471092,18.632364 75.731309,18.5603636 C75.8155087,18.4883633 75.8821659,18.4523636 75.9312824,18.4523636 C75.9874156,18.4523636 76.0435479,18.486649 76.0996811,18.5552208 L76.3733289,18.9872208 C76.1066963,19.2752222 75.7681482,19.5066485 75.3576744,19.6815065 C74.9472006,19.8563645 74.5209457,19.9437922 74.078897,19.9437922 L74.078897,19.9437922 Z M86.2016877,14.8317922 C85.2053239,14.8660781 84.3475518,14.9432202 83.6283455,15.0632208 C82.9091393,15.1832214 82.3162415,15.3460769 81.8496346,15.5517922 C81.3830276,15.7575075 81.0374629,16.0026479 80.8129302,16.2872208 C80.5883975,16.5717936 80.4761329,16.8957904 80.4761329,17.2592208 C80.4761329,17.6020796 80.5340194,17.8986481 80.649794,18.1489351 C80.7655687,18.399222 80.9199326,18.6049343 81.1128904,18.7660779 C81.3058481,18.9272216 81.5286233,19.0455061 81.7812226,19.1209351 C82.0338219,19.196364 82.2969422,19.2340779 82.5705914,19.2340779 C82.9775569,19.2340779 83.3511877,19.1912212 83.691495,19.1055065 C84.0318024,19.0197918 84.3475467,18.899793 84.6387375,18.7455065 C84.9299284,18.59122 85.2018193,18.4077933 85.4544186,18.1952208 C85.7070179,17.9826483 85.9561051,17.7529363 86.2016877,17.5060779 L86.2016877,14.8317922 Z M80.0446113,10.9952208 C80.5919097,10.460361 81.1672661,10.0557936 81.7706977,9.78150649 C82.3741293,9.50721941 83.058242,9.37007792 83.8230565,9.37007792 C84.3843882,9.37007792 84.8755461,9.45750562 85.2965449,9.63236364 C85.7175436,9.80722165 86.0666166,10.0575049 86.3437741,10.3832208 C86.6209316,10.7089367 86.8296737,11.1032185 86.9700066,11.5660779 C87.1103396,12.0289374 87.180505,12.5449322 87.180505,13.1140779 L87.180505,19.7792208 L86.7805581,19.7792208 C86.5700587,19.7792208 86.4402527,19.6832217 86.3911362,19.4912208 L86.2437874,18.1746494 C85.9561049,18.4489364 85.6701808,18.6957911 85.3860066,18.9152208 C85.1018325,19.1346504 84.8053836,19.3197915 84.4966512,19.4706494 C84.1879187,19.6215072 83.854633,19.7380775 83.4967841,19.8203636 C83.1389351,19.9026498 82.7460088,19.9437922 82.3179934,19.9437922 C81.9601444,19.9437922 81.6128256,19.8923642 81.2760266,19.7895065 C80.9392276,19.6866488 80.6392704,19.5289361 80.3761462,19.3163636 C80.1130219,19.1037911 79.9025257,18.8312224 79.7446512,18.4986494 C79.5867766,18.1660763 79.5078405,17.7666517 79.5078405,17.3003636 C79.5078405,16.8683615 79.6341383,16.4672226 79.8867375,16.0969351 C80.1393368,15.7266475 80.5357714,15.404365 81.0760532,15.1300779 C81.6163349,14.8557908 82.3092184,14.6363645 83.1547243,14.4717922 C84.0002301,14.30722 85.0158745,14.2112209 86.2016877,14.1837922 L86.2016877,13.1140779 C86.2016877,12.1677875 85.9929456,11.4392233 85.5754551,10.9283636 C85.1579647,10.4175039 84.5387549,10.1620779 83.7178073,10.1620779 C83.2126088,10.1620779 82.7828456,10.2306487 82.428505,10.3677922 C82.0741643,10.5049358 81.7742072,10.6557914 81.5286246,10.8203636 C81.283042,10.9849359 81.0830705,11.1357915 80.9287043,11.2729351 C80.7743381,11.4100786 80.6445321,11.4786494 80.5392824,11.4786494 C80.4620993,11.4786494 80.3989504,11.4615067 80.3498339,11.4272208 C80.3007174,11.3929349 80.2586181,11.3483639 80.2235349,11.2935065 L80.0446113,10.9952208 Z M98.1981794,10.8100779 C98.1420462,10.9060784 98.061356,10.9540779 97.9561063,10.9540779 C97.8789232,10.9540779 97.7806916,10.9112212 97.6614086,10.8255065 C97.5421256,10.7397918 97.3824993,10.6437927 97.1825249,10.5375065 C96.9825505,10.4312202 96.7352174,10.3352212 96.4405183,10.2495065 C96.1458191,10.1637918 95.7879755,10.1209351 95.3669767,10.1209351 C94.9880778,10.1209351 94.6425132,10.1740774 94.3302724,10.2803636 C94.0180317,10.3866499 93.7514031,10.5289342 93.5303787,10.7072208 C93.3093544,10.8855074 93.1392033,11.0929339 93.0199203,11.3295065 C92.9006373,11.5660791 92.8409967,11.814648 92.8409967,12.0752208 C92.8409967,12.3975081 92.9251952,12.664934 93.0935947,12.8775065 C93.2619942,13.090079 93.4812611,13.2717915 93.751402,13.4226494 C94.0215429,13.5735072 94.3320248,13.7037917 94.6828571,13.8135065 C95.0336895,13.9232213 95.3897789,14.0329345 95.7511362,14.1426494 C96.1124935,14.2523642 96.468583,14.3740773 96.8194153,14.5077922 C97.1702476,14.6415072 97.4807295,14.8077912 97.7508704,15.0066494 C98.0210113,15.2055075 98.2402782,15.4489336 98.4086777,15.7369351 C98.5770773,16.0249365 98.6612757,16.3746473 98.6612757,16.7860779 C98.6612757,17.2317944 98.5805855,17.6466474 98.4192027,18.0306494 C98.2578198,18.4146513 98.0210115,18.7472194 97.7087708,19.0283636 C97.39653,19.3095079 97.0123744,19.5323628 96.5562924,19.6969351 C96.1002103,19.8615073 95.577478,19.9437922 94.9880797,19.9437922 C94.2513319,19.9437922 93.6163349,19.8289362 93.0830698,19.5992208 C92.5498046,19.3695053 92.0726798,19.0695083 91.6516811,18.6992208 L91.8832292,18.3495065 C91.9183125,18.2946491 91.9586576,18.2535066 92.0042658,18.2260779 C92.049874,18.1986492 92.1112687,18.1849351 92.1884518,18.1849351 C92.2796682,18.1849351 92.3901788,18.2397917 92.5199867,18.3495065 C92.6497947,18.4592213 92.8234541,18.5775059 93.0409701,18.7043636 C93.2584861,18.8312214 93.5268688,18.9495059 93.8461262,19.0592208 C94.1653837,19.1689356 94.5600641,19.2237922 95.0301794,19.2237922 C95.4722281,19.2237922 95.8616462,19.1637928 96.1984452,19.0437922 C96.5352442,18.9237916 96.8159059,18.7609361 97.0404385,18.5552208 C97.2649712,18.3495055 97.4351223,18.1077936 97.550897,17.8300779 C97.6666717,17.5523622 97.7245581,17.2592223 97.7245581,16.9506494 C97.7245581,16.6077905 97.6403596,16.3232219 97.4719601,16.0969351 C97.3035606,15.8706482 97.0825396,15.6786501 96.8088904,15.5209351 C96.5352412,15.36322 96.2247592,15.229507 95.8774352,15.1197922 C95.5301112,15.0100774 95.1740218,14.9003642 94.8091561,14.7906494 C94.4442905,14.6809345 94.0882011,14.5609357 93.7408771,14.4306494 C93.3935531,14.300363 93.0830711,14.1357932 92.8094219,13.9369351 C92.5357727,13.7380769 92.3147517,13.4963651 92.1463522,13.2117922 C91.9779526,12.9272194 91.8937542,12.5723658 91.8937542,12.1472208 C91.8937542,11.7837904 91.9744444,11.4340796 92.1358272,11.0980779 C92.2972101,10.7620762 92.5270018,10.467222 92.8252093,10.2135065 C93.1234168,9.95979094 93.4865228,9.75750725 93.9145382,9.60664935 C94.3425536,9.45579145 94.8231867,9.38036364 95.3564518,9.38036364 C95.9949666,9.38036364 96.5615523,9.4695056 97.0562259,9.64779221 C97.5508995,9.82607881 98.0017123,10.1003618 98.4086777,10.4706494 L98.1981794,10.8100779 Z M104.311243,4.81350649 L104.311243,13.9369351 L104.795389,13.9369351 C104.893622,13.9369351 104.986591,13.9232209 105.074299,13.8957922 C105.162007,13.8683635 105.258485,13.8032213 105.363734,13.7003636 L109.563176,9.80207792 C109.633343,9.7197918 109.710524,9.65636386 109.794724,9.61179221 C109.878924,9.56722056 109.984172,9.54493506 110.110472,9.54493506 L110.994565,9.54493506 L106.374126,13.8340779 C106.247827,13.9780786 106.111004,14.0912204 105.963654,14.1735065 C106.075921,14.2283639 106.172398,14.2917918 106.25309,14.3637922 C106.333781,14.4357926 106.412717,14.5197917 106.4899,14.6157922 L111.341887,19.7792208 L110.468319,19.7792208 C110.370086,19.7792208 110.280625,19.7637924 110.199934,19.7329351 C110.119242,19.7020778 110.043814,19.6386498 109.973648,19.5426494 L105.574233,14.9346494 C105.518099,14.8729348 105.463721,14.8215067 105.411096,14.7803636 C105.358471,14.7392206 105.304093,14.7066495 105.24796,14.6826494 C105.191827,14.6586492 105.126924,14.6415065 105.053249,14.6312208 C104.979574,14.620935 104.890113,14.6157922 104.784864,14.6157922 L104.311243,14.6157922 L104.311243,19.7792208 L103.30085,19.7792208 L103.30085,4.81350649 L104.311243,4.81350649 Z M120.991322,10.8100779 C120.935189,10.9060784 120.854499,10.9540779 120.749249,10.9540779 C120.672066,10.9540779 120.573834,10.9112212 120.454551,10.8255065 C120.335269,10.7397918 120.175642,10.6437927 119.975668,10.5375065 C119.775693,10.4312202 119.52836,10.3352212 119.233661,10.2495065 C118.938962,10.1637918 118.581118,10.1209351 118.16012,10.1209351 C117.781221,10.1209351 117.435656,10.1740774 117.123415,10.2803636 C116.811175,10.3866499 116.544546,10.5289342 116.323522,10.7072208 C116.102497,10.8855074 115.932346,11.0929339 115.813063,11.3295065 C115.69378,11.5660791 115.63414,11.814648 115.63414,12.0752208 C115.63414,12.3975081 115.718338,12.664934 115.886738,12.8775065 C116.055137,13.090079 116.274404,13.2717915 116.544545,13.4226494 C116.814686,13.5735072 117.125168,13.7037917 117.476,13.8135065 C117.826832,13.9232213 118.182922,14.0329345 118.544279,14.1426494 C118.905636,14.2523642 119.261726,14.3740773 119.612558,14.5077922 C119.96339,14.6415072 120.273872,14.8077912 120.544013,15.0066494 C120.814154,15.2055075 121.033421,15.4489336 121.201821,15.7369351 C121.37022,16.0249365 121.454419,16.3746473 121.454419,16.7860779 C121.454419,17.2317944 121.373728,17.6466474 121.212346,18.0306494 C121.050963,18.4146513 120.814154,18.7472194 120.501914,19.0283636 C120.189673,19.3095079 119.805517,19.5323628 119.349435,19.6969351 C118.893353,19.8615073 118.370621,19.9437922 117.781223,19.9437922 C117.044475,19.9437922 116.409478,19.8289362 115.876213,19.5992208 C115.342947,19.3695053 114.865823,19.0695083 114.444824,18.6992208 L114.676372,18.3495065 C114.711455,18.2946491 114.7518,18.2535066 114.797409,18.2260779 C114.843017,18.1986492 114.904412,18.1849351 114.981595,18.1849351 C115.072811,18.1849351 115.183322,18.2397917 115.31313,18.3495065 C115.442938,18.4592213 115.616597,18.5775059 115.834113,18.7043636 C116.051629,18.8312214 116.320012,18.9495059 116.639269,19.0592208 C116.958527,19.1689356 117.353207,19.2237922 117.823322,19.2237922 C118.265371,19.2237922 118.654789,19.1637928 118.991588,19.0437922 C119.328387,18.9237916 119.609049,18.7609361 119.833581,18.5552208 C120.058114,18.3495055 120.228265,18.1077936 120.34404,17.8300779 C120.459815,17.5523622 120.517701,17.2592223 120.517701,16.9506494 C120.517701,16.6077905 120.433503,16.3232219 120.265103,16.0969351 C120.096703,15.8706482 119.875682,15.6786501 119.602033,15.5209351 C119.328384,15.36322 119.017902,15.229507 118.670578,15.1197922 C118.323254,15.0100774 117.967165,14.9003642 117.602299,14.7906494 C117.237433,14.6809345 116.881344,14.5609357 116.53402,14.4306494 C116.186696,14.300363 115.876214,14.1357932 115.602565,13.9369351 C115.328916,13.7380769 115.107895,13.4963651 114.939495,13.2117922 C114.771096,12.9272194 114.686897,12.5723658 114.686897,12.1472208 C114.686897,11.7837904 114.767587,11.4340796 114.92897,11.0980779 C115.090353,10.7620762 115.320145,10.467222 115.618352,10.2135065 C115.91656,9.95979094 116.279666,9.75750725 116.707681,9.60664935 C117.135696,9.45579145 117.61633,9.38036364 118.149595,9.38036364 C118.78811,9.38036364 119.354695,9.4695056 119.849369,9.64779221 C120.344042,9.82607881 120.794855,10.1003618 121.201821,10.4706494 L120.991322,10.8100779 Z" id="tasks" fill="#2A2F39"></path>
                <path d="M8.67323588,12.1780779 L13.9146445,12.1780779 L13.9146445,18.3392208 C13.1357968,18.8946521 12.3060908,19.3009338 11.4255017,19.5580779 C10.5449125,19.8152221 9.61346671,19.9437922 8.63113621,19.9437922 C7.37515651,19.9437922 6.23847685,19.7535084 5.22106312,19.3729351 C4.2036494,18.9923617 3.3335983,18.4626527 2.61088372,17.7837922 C1.88816914,17.1049317 1.33035412,16.2992254 0.937421927,15.3666494 C0.54448973,14.4340733 0.348026578,13.4157977 0.348026578,12.3117922 C0.348026578,11.1940723 0.535719053,10.1689397 0.911109635,9.23636364 C1.28650022,8.30378754 1.82151148,7.50150985 2.51615947,6.82950649 C3.21080746,6.15750313 4.05103826,5.63293695 5.03687708,5.25579221 C6.02271589,4.87864746 7.12606699,4.69007792 8.34696346,4.69007792 C8.97846163,4.69007792 9.56785108,4.73979171 10.1151495,4.83922078 C10.6624479,4.93864985 11.1676389,5.07579133 11.6307375,5.25064935 C12.0938362,5.42550737 12.5183369,5.63293386 12.9042525,5.87293506 C13.290168,6.11293626 13.6409951,6.37693362 13.9567442,6.66493506 L13.0410764,8.04322078 C12.9007435,8.26265045 12.7183134,8.3963634 12.4937807,8.44436364 C12.269248,8.49236388 12.0236691,8.43750728 11.7570365,8.27979221 C11.5044373,8.12893431 11.2571042,7.99350709 11.0150299,7.87350649 C10.7729556,7.75350589 10.5150977,7.64893551 10.2414485,7.55979221 C9.9677993,7.4706489 9.6695963,7.40207816 9.34683056,7.35407792 C9.02406483,7.30607768 8.65218815,7.28207792 8.23118937,7.28207792 C7.52250808,7.28207792 6.88049457,7.40207672 6.30512957,7.64207792 C5.72976457,7.88207912 5.24036082,8.2215043 4.83690365,8.66036364 C4.43344649,9.09922297 4.12296454,9.62721769 3.9054485,10.2443636 C3.68793247,10.8615096 3.57917608,11.5506455 3.57917608,12.3117922 C3.57917608,13.1346535 3.69845728,13.8700747 3.93702326,14.5180779 C4.17558923,15.1660812 4.51238321,15.7129328 4.94741528,16.1586494 C5.38244736,16.6043659 5.90342554,16.943791 6.51036545,17.1769351 C7.11730536,17.4100791 7.79264744,17.5266494 8.53641196,17.5266494 C9.0416105,17.5266494 9.49242327,17.4769356 9.88886379,17.3775065 C10.2853043,17.2780774 10.6729682,17.1426502 11.0518671,16.9712208 L11.0518671,14.4615065 L9.32578073,14.4615065 C9.12229799,14.4615065 8.96267168,14.4083642 8.84689701,14.3020779 C8.73112234,14.1957917 8.67323588,14.0603645 8.67323588,13.8957922 L8.67323588,12.1780779 Z M25.7226445,7.71407792 C25.6244115,7.871793 25.5244258,7.98664899 25.4226844,8.05864935 C25.320943,8.13064971 25.1893829,8.16664935 25.028,8.16664935 C24.8736338,8.16664935 24.7069909,8.11350702 24.5280664,8.00722078 C24.349142,7.90093453 24.1403999,7.78607854 23.9018339,7.66264935 C23.6632679,7.53922016 23.3896228,7.42436417 23.0808904,7.31807792 C22.7721579,7.21179168 22.4108061,7.15864935 21.9968239,7.15864935 C21.2670927,7.15864935 20.7198025,7.31807633 20.3549369,7.63693506 C19.9900713,7.9557938 19.8076412,8.37236106 19.8076412,8.88664935 C19.8076412,9.21579385 19.9076269,9.48836256 20.1076013,9.70436364 C20.3075758,9.92036472 20.570696,10.10722 20.8969701,10.2649351 C21.2232442,10.4226501 21.5933667,10.5632202 22.0073488,10.6866494 C22.421331,10.8100785 22.8458317,10.9455058 23.2808638,11.0929351 C23.7158959,11.2403644 24.1403966,11.4135055 24.5543787,11.6123636 C24.9683609,11.8112218 25.3384834,12.061505 25.6647575,12.3632208 C25.9910315,12.6649366 26.2541518,13.0335043 26.4541262,13.4689351 C26.6541007,13.9043658 26.7540864,14.4340748 26.7540864,15.0580779 C26.7540864,15.7369385 26.633051,16.3729321 26.3909767,16.9660779 C26.1489024,17.5592237 25.7998295,18.0769329 25.3437475,18.5192208 C24.8876655,18.9615087 24.3245881,19.3095052 23.6544983,19.5632208 C22.9844086,19.8169363 22.224868,19.9437922 21.3758538,19.9437922 C20.8917052,19.9437922 20.409318,19.8957927 19.9286777,19.7997922 C19.4480375,19.7037917 18.9849457,19.5700788 18.5393887,19.3986494 C18.0938317,19.2272199 17.6745933,19.0215077 17.2816611,18.7815065 C16.8887289,18.5415053 16.5449184,18.2740794 16.2502193,17.9792208 L17.176412,16.5186494 C17.2535951,16.4089345 17.3553349,16.3180783 17.4816346,16.2460779 C17.6079342,16.1740776 17.7412485,16.1380779 17.8815814,16.1380779 C18.0710308,16.1380779 18.2710023,16.2066487 18.4815017,16.3437922 C18.6920011,16.4809358 18.9340717,16.6317914 19.2077209,16.7963636 C19.4813701,16.9609359 19.7988686,17.1117915 20.1602259,17.2489351 C20.5215832,17.3860786 20.9548546,17.4546494 21.4600532,17.4546494 C22.196801,17.4546494 22.766895,17.2900796 23.1703522,16.9609351 C23.5738093,16.6317906 23.7755349,16.1415098 23.7755349,15.4900779 C23.7755349,15.1129332 23.6755492,14.8077934 23.4755748,14.5746494 C23.2756003,14.3415053 23.0142342,14.1460787 22.6914684,13.9883636 C22.3687027,13.8306486 22.0003343,13.6952213 21.5863522,13.5820779 C21.17237,13.4689345 20.7478693,13.3437929 20.3128372,13.2066494 C19.8778051,13.0695058 19.4533044,12.904936 19.0393223,12.7129351 C18.6253401,12.5209341 18.2569717,12.2672224 17.934206,11.9517922 C17.6114402,11.6363621 17.3500741,11.2455088 17.1500997,10.7792208 C16.9501252,10.3129327 16.8501395,9.73350996 16.8501395,9.04093506 C16.8501395,8.48550372 16.9624042,7.94722338 17.1869369,7.42607792 C17.4114696,6.90493246 17.741247,6.44207994 18.1762791,6.03750649 C18.6113111,5.63293304 19.1463224,5.30722201 19.7813289,5.06036364 C20.4163354,4.81350526 21.1443015,4.69007792 21.9652492,4.69007792 C22.8844298,4.69007792 23.7351855,4.82893368 24.5175415,5.10664935 C25.2998976,5.38436502 25.9612066,5.77007545 26.5014884,6.26379221 L25.7226445,7.71407792 Z M46.845196,4.85464935 L46.845196,19.7792208 L44.056093,19.7792208 L44.056093,10.6146494 C44.056093,10.4226484 44.0613554,10.2169362 44.0718804,9.99750649 C44.0824054,9.77807682 44.1017009,9.55522191 44.1297674,9.32893506 L39.7619269,17.4237922 C39.5233609,17.8695087 39.1549925,18.0923636 38.6568106,18.0923636 L38.2147641,18.0923636 C37.9691815,18.0923636 37.7516687,18.0357928 37.5622193,17.9226494 C37.3727698,17.8095059 37.2219142,17.6432219 37.1096478,17.4237922 L32.7207575,9.29807792 C32.7418074,9.53807912 32.7593488,9.76950538 32.7733821,9.99236364 C32.7874154,10.2152219 32.7944319,10.4226484 32.7944319,10.6146494 L32.7944319,19.7792208 L30.0053289,19.7792208 L30.0053289,4.85464935 L32.40501,4.85464935 C32.5383262,4.85464935 32.6576074,4.85807789 32.7628571,4.86493506 C32.8681068,4.87179224 32.961076,4.8906492 33.0417674,4.92150649 C33.1224589,4.95236379 33.1961326,5.00036331 33.2627907,5.06550649 C33.3294488,5.13064968 33.3943518,5.22150591 33.4575017,5.33807792 L37.7306179,13.2992208 C37.8639342,13.539222 37.9884778,13.7860767 38.1042525,14.0397922 C38.2200272,14.2935078 38.3305377,14.5540766 38.4357874,14.8215065 C38.5410371,14.5472194 38.6515476,14.2797935 38.7673223,14.0192208 C38.8830969,13.758648 39.0076405,13.5083648 39.1409568,13.2683636 L43.3824983,5.33807792 C43.4456482,5.22150591 43.5123053,5.13064968 43.5824718,5.06550649 C43.6526382,5.00036331 43.728066,4.95236379 43.8087575,4.92150649 C43.8894489,4.8906492 43.9806639,4.87179224 44.0824053,4.86493506 C44.1841467,4.85807789 44.305182,4.85464935 44.445515,4.85464935 L46.845196,4.85464935 Z" id="GSM" fill="#2A2F39"></path>
            </g>
        </g>
    </g>
</svg>