<?xml version="1.0" encoding="UTF-8"?>
<svg width="121px" height="33px" viewBox="0 0 121 33" version="1.1" xmlns="http://www.w3.org/2000/svg" xmlns:xlink="http://www.w3.org/1999/xlink">
    <!-- Generator: Sketch 47.1 (45422) - http://www.bohemiancoding.com/sketch -->
    <title>logo copy</title>
    <desc>Created with Sketch.</desc>
    <defs></defs>
    <g id="00----UI-Kit" stroke="none" stroke-width="1" fill="none" fill-rule="evenodd">
        <g id="CVI---Navirec---01" transform="translate(-377.000000, -192.000000)">
            <g id="logo-copy" transform="translate(377.000000, 192.000000)">
                <path d="M32.3442099,23.71875 L32.3442099,10.2077637 L35.6997642,10.2077637 L35.6997642,12.3810425 C36.8182879,10.7838055 38.2230269,9.98519897 39.9140233,9.98519897 C41.1998852,9.98519897 42.2215135,10.3408625 42.978939,11.0522003 C43.7363645,11.7635381 44.1150715,12.7694332 44.1150715,14.0699158 L44.1150715,23.71875 L40.7595173,23.71875 L40.7595173,15.0518188 C40.7595173,13.5767749 40.1077888,12.8392639 38.8043124,12.8392639 C37.9147778,12.8392639 37.174978,13.3389385 36.5848907,14.3383026 C35.9948034,15.3376667 35.6997642,16.6664956 35.6997642,18.3248291 L35.6997642,23.71875 L32.3442099,23.71875 Z M47.1915721,19.8304138 C47.1915721,18.495019 47.726606,17.4236643 48.7966896,16.6163177 C49.8667733,15.8089712 51.2693105,15.405304 53.0043433,15.405304 L55.2766084,15.405304 L55.2766084,14.8161621 C55.2766084,13.4982234 54.4839657,12.8392639 52.8986566,12.8392639 C51.6832529,12.8392639 50.8994173,13.3542124 50.5471264,14.3841248 L47.706795,13.7426147 C47.9269769,12.6079655 48.5082482,11.6980778 49.4506264,11.0129242 C50.3930046,10.3277706 51.5423365,9.98519897 52.8986566,9.98519897 C56.7210131,9.98519897 58.6321627,11.874798 58.6321627,15.6540527 L58.6321627,23.71875 L55.8710964,23.71875 L55.5276144,22.0036926 C54.4707417,23.2867191 53.0704062,23.9282227 51.3265662,23.9282227 C50.0935479,23.9282227 49.0961392,23.5638312 48.3343101,22.8350372 C47.572481,22.1062433 47.1915721,21.1047122 47.1915721,19.8304138 L47.1915721,19.8304138 Z M50.7056565,19.7780457 C50.7056565,20.1533527 50.8333601,20.4653766 51.088771,20.7141266 C51.3441819,20.9628766 51.6876604,21.0872498 52.1192168,21.0872498 C52.9471005,21.0872498 53.6736896,20.8297755 54.299006,20.3148193 C54.9507442,19.7998631 55.2766084,19.1278118 55.2766084,18.298645 L55.2766084,18.0368042 L53.030765,18.0368042 C51.4806849,18.0368042 50.7056565,18.6172122 50.7056565,19.7780457 L50.7056565,19.7780457 Z M60.1365729,10.2077637 L63.5185488,10.2077637 L66.2796151,19.6209412 L69.0406815,10.2077637 L72.4226574,10.2077637 L67.7988622,23.71875 L64.7603681,23.71875 L60.1365729,10.2077637 Z M74.2044953,5.28817749 C74.2044953,4.67721252 74.4114632,4.16662803 74.825405,3.75640869 C75.2393468,3.34618936 75.7523628,3.14108276 76.3644683,3.14108276 C76.9765737,3.14108276 77.4895897,3.34618936 77.9035315,3.75640869 C78.3174734,4.16662803 78.5244412,4.67721252 78.5244412,5.28817749 C78.5244412,5.89914246 78.3174734,6.40972695 77.9035315,6.81994629 C77.4895897,7.23016563 76.9765737,7.43527222 76.3644683,7.43527222 C75.7523628,7.43527222 75.2393468,7.23016563 74.825405,6.81994629 C74.4114632,6.40972695 74.2044953,5.89914246 74.2044953,5.28817749 L74.2044953,5.28817749 Z M74.6800857,23.71875 L74.6800857,10.2077637 L78.03564,10.2077637 L78.03564,23.71875 L74.6800857,23.71875 Z M81.7330502,23.71875 L81.7330502,10.2077637 L85.0886045,10.2077637 L85.0886045,12.4072266 C85.5818118,11.6391563 86.1784956,11.0434744 86.8786738,10.620163 C87.578852,10.1968515 88.3252572,9.98519897 89.1179118,9.98519897 C89.6287336,9.98519897 90.1791799,10.0768423 90.7692672,10.2601318 L90.1483576,13.3367615 C89.7256085,13.0923755 89.2544264,12.9701843 88.7347973,12.9701843 C87.6162736,12.9701843 86.7289542,13.4654949 86.0728123,14.456131 C85.4166705,15.446767 85.0886045,16.9326988 85.0886045,18.9139709 L85.0886045,23.71875 L81.7330502,23.71875 Z M92.3000991,16.9632568 C92.3000991,16.2999234 92.3749598,15.6453279 92.5246835,14.9994507 C92.6744071,14.3535734 92.9210071,13.7251617 93.2644907,13.1141968 C93.6079744,12.5032318 94.0263136,11.9686455 94.5195208,11.5104218 C95.0127281,11.052198 95.6336316,10.6834426 96.3822498,10.4041443 C97.130868,10.124846 97.9543357,9.98519897 98.8526775,9.98519897 C99.9095503,9.98519897 100.862923,10.1859416 101.712825,10.5874329 C102.562727,10.9889241 103.238675,11.5387844 103.74069,12.23703 C104.718297,13.5462407 105.207093,15.0212625 105.207093,16.6621399 L105.207093,18.0368042 L95.8141835,18.0368042 C95.8582199,18.8921552 96.1730752,19.6143922 96.7587588,20.203537 C97.3444425,20.7926818 98.1040584,21.0872498 99.0376293,21.0872498 C100.429178,21.0872498 101.530071,20.3933785 102.34034,19.0056152 L105.048563,19.9875183 C103.886003,22.6146677 101.820729,23.9282227 98.8526775,23.9282227 C97.9543357,23.9282227 97.130868,23.7885756 96.3822498,23.5092773 C95.6336316,23.2299791 95.0127281,22.8612236 94.5195208,22.4029999 C94.0263136,21.9447762 93.6079744,21.4123718 93.2644907,20.8057709 C92.9210071,20.1991699 92.6744071,19.5729402 92.5246835,18.927063 C92.3749598,18.2811857 92.3000991,17.6265902 92.3000991,16.9632568 L92.3000991,16.9632568 Z M95.8934486,15.405304 L101.772274,15.405304 C101.393561,13.694602 100.420372,12.8392639 98.8526775,12.8392639 C98.0776375,12.8392639 97.4215055,13.0836462 96.8842618,13.5724182 C96.3470182,14.0611902 96.0167504,14.672146 95.8934486,15.405304 L95.8934486,15.405304 Z M107.4381,16.9632568 C107.4381,14.9383444 108.014968,13.2756718 109.16872,11.9751892 C110.348895,10.6485224 111.991427,9.98519897 114.096365,9.98519897 C117.170103,9.98519897 119.235378,11.2725701 120.292251,13.8473511 L117.293389,15.0518188 C116.571193,13.5767749 115.505529,12.8392639 114.096365,12.8392639 C113.083529,12.8392639 112.306298,13.2123834 111.764651,13.9586334 C111.223004,14.7048835 110.952184,15.7064146 110.952184,16.9632568 C110.952184,18.2200991 111.223004,19.2216302 111.764651,19.9678802 C112.306298,20.7141303 113.083529,21.0872498 114.096365,21.0872498 C115.496721,21.0872498 116.562386,20.3453749 117.293389,18.8616028 L120.292251,20.0660706 C119.235378,22.6408515 117.170103,23.9282227 114.096365,23.9282227 C111.98262,23.9282227 110.340088,23.2692632 109.16872,21.9513245 C108.014968,20.6508419 107.4381,18.9881693 107.4381,16.9632568 L107.4381,16.9632568 Z" id="navirec" fill="#353D48"></path>
                <g id="Group-3">
                    <path d="M9.88577586,0 C17.3800432,8.25979096 18.7309437,19.4033101 18.7309437,19.4033101 C18.7309437,19.4033101 14.7224589,17.5448417 9.88577586,17.5448425 C5.04909278,17.5448432 1.04060799,19.4033101 1.04060799,19.4033101 C1.04060799,19.4033101 2.29240134,8.25979096 9.88577586,0 Z M9.88577586,6.77808353 C7.0368386,10.0535108 6.36673058,14.2758154 6.36673058,14.2758154 C6.36673058,14.2758154 7.9615041,13.6963419 9.88577586,13.6963415 C11.8100476,13.6963412 13.4048211,14.2758154 13.4048211,14.2758154 C13.4048211,14.2758154 12.6684618,10.2023678 9.88577586,6.77808353 Z" id="Triangle-1" fill="#38D379"></path>
                    <path d="M6.32607312,25.8436086 C7.53161157,26.2302204 8.77753297,26.4637433 10.0194897,26.4637433 C11.2728635,26.4637434 12.4845267,26.2255666 13.6192971,25.8301937 C14.3038519,25.5916835 14.825395,25.3469527 15.1462847,25.1647914 C15.9541609,24.7061798 16.2339221,23.6853782 15.771149,22.8847671 C15.3083758,22.0841561 14.278311,21.8069107 13.4704349,22.2655222 C13.3165985,22.3528513 12.9766795,22.5123562 12.5010266,22.6780816 C11.7021174,22.9564348 10.8573357,23.1224936 10.0194898,23.1224936 C9.17022674,23.1224936 8.25941798,22.9517808 7.36413455,22.6646667 C6.82268053,22.4910243 6.41879302,22.3212649 6.2196433,22.2221685 C5.38760626,21.8081489 4.37443216,22.1409534 3.9566556,22.965508 C3.53887905,23.7900627 3.87470352,24.7941256 4.70674055,25.2081451 C5.04917393,25.3785391 5.60703393,25.6130153 6.32607312,25.8436086 Z" id="Line-Copy" fill="#C5CFDD" fill-rule="nonzero"></path>
                    <path d="M3.88879216,31.4218091 C5.86028643,32.1619842 7.92839877,32.6081249 10.0144175,32.6081249 C12.1074941,32.6081248 14.1370642,32.1587294 16.0356811,31.4124803 C17.1760583,30.9642565 18.0344957,30.5093049 18.5416286,30.1838459 C19.3231082,29.6823214 19.5463674,28.6479382 19.0402918,27.8734862 C18.5342163,27.0990343 17.4904466,26.8777829 16.7089669,27.3793074 C16.6420957,27.4222228 16.4819671,27.5164679 16.2389745,27.6452482 C15.8164704,27.8691654 15.3307579,28.095098 14.7926611,28.3065963 C13.2630724,28.9077993 11.6414058,29.2668751 10.0144175,29.2668751 C8.38037139,29.2668752 6.70076563,28.9045445 5.08325226,28.2972675 C4.51224483,28.0828893 3.99196287,27.8536043 3.53527423,27.6259673 C3.27059067,27.4940354 3.09310642,27.396431 3.0151951,27.3499874 C2.21737554,26.8744001 1.1815768,27.1298048 0.701673867,27.9204497 C0.221770932,28.7110947 0.479493278,29.7375787 1.27731284,30.2131659 C1.81026294,30.5308622 2.70925056,30.9789636 3.88879216,31.4218091 Z" id="Line-Copy-2" fill="#C5CFDD" fill-rule="nonzero"></path>
                </g>
            </g>
        </g>
    </g>
</svg>